<?xml version="1.0" encoding="utf-8"?>
<!-- Generator: Adobe Illustrator 18.0.0, SVG Export Plug-In . SVG Version: 6.00 Build 0)  -->
<!DOCTYPE svg PUBLIC "-//W3C//DTD SVG 1.1//EN" "http://www.w3.org/Graphics/SVG/1.1/DTD/svg11.dtd">
<svg version="1.1" id="Capa_1" xmlns="http://www.w3.org/2000/svg" xmlns:xlink="http://www.w3.org/1999/xlink" x="0px" y="0px"
	 viewBox="0 157.3 841.9 280.6" enable-background="new 0 157.3 841.9 280.6" xml:space="preserve">
<g id="Foto" display="none">
	
		<image display="inline" overflow="visible" enable-background="new    " width="180" height="60" xlink:href="39165836.png"  transform="matrix(4.6772 0 0 4.6772 0 157.325)">
	</image>
</g>
<g id="Capa_2">
	<rect y="157.3" fill="#CC0033" width="841.9" height="280.6"/>
</g>
<g id="Capa_3">
	<path fill="#FFFFFF" d="M14.1,171.3h93.5v140.3c0,0-1.9,23.5,33.1,23.5c0,0,32.4,2.6,32.4-23.5V171.3h88.8v154.4
		c0,0,4.7,98.6-123.9,98.6C10.8,424.3,14.1,322,14.1,322S14.1,171.3,14.1,171.3z"/>
	<polygon fill="#FFFFFF" points="299.5,171.3 337.2,171.3 405.3,363.4 472.5,171.3 510.6,171.3 425.7,419.5 388.3,419.5 	"/>
	<rect x="547.3" y="171.3" fill="#FFFFFF" width="28.5" height="248.2"/>
	<path fill="#FFFFFF" d="M732.2,171.3c0,0,95.7-1.9,95.7,74.5h-32.4c0,0,0-46.5-63.3-46.5S667,251.9,667,251.9v80.6
		c0,0,2.2,58.7,68.1,58.7s60.4-51.5,60.4-51.5h32.4c0,0,4.7,84.2-91.8,84.2c-106.5,0-104.8-88.5-104.8-88.5v-84.9
		C631.5,250.4,625.4,171.3,732.2,171.3z"/>
</g>
</svg>
